<?xml version="1.0" encoding="UTF-8"?>
<!DOCTYPE svg PUBLIC "-//W3C//DTD SVG 1.1//EN" "http://www.w3.org/Graphics/SVG/1.1/DTD/svg11.dtd">
<svg version="1.2" xmlns="http://www.w3.org/2000/svg" xmlns:xlink="http://www.w3.org/1999/xlink" x="0" y="0" width="762" height="745" viewBox="0 0 762 745">
<style type="text/css"><![CDATA[
text { font:12px Dialog; }
]]></style>
<rect x="-485" y="-485" width="1732" height="1715" style="fill:rgb(235,233,220);stroke:none" />
<clipPath id="clip1"><path d="M15,15 L747,15 L747,730 L15,730 Z M18,18 L18,89 L380,89 L380,18 Z M18,18 Z M18,18" /></clipPath>
<path d="M199,99 L199,141 C199,145.4140625 202.5859375,149 207,149 L221,149" style="fill:none;stroke:rgb(31,20,0);stroke-width:2" clip-path="url(#clip1)" />
<clipPath id="clip2"><path d="M15,15 L747,15 L747,730 L15,730 Z M18,18 L18,89 L380,89 L380,18 Z M18,18 Z M18,18" /></clipPath>
<path d="M199,99 L199,280 C199,284.4140625 202.5859375,288 207,288 L221,288" style="fill:none;stroke:rgb(31,20,0);stroke-width:2" clip-path="url(#clip2)" />
<clipPath id="clip3"><path d="M15,15 L747,15 L747,730 L15,730 Z M18,18 L18,89 L380,89 L380,18 Z M18,18 Z M18,18" /></clipPath>
<path d="M199,99 L199,389 C199,393.4140625 202.5859375,397 207,397 L221,397" style="fill:none;stroke:rgb(31,20,0);stroke-width:2" clip-path="url(#clip3)" />
<clipPath id="clip4"><path d="M15,15 L747,15 L747,730 L15,730 Z M18,18 L18,89 L380,89 L380,18 Z M18,18 Z M18,18" /></clipPath>
<path d="M199,99 L199,588 C199,592.4140625 202.5859375,596 207,596 L221,596" style="fill:none;stroke:rgb(31,20,0);stroke-width:2" clip-path="url(#clip4)" />
<clipPath id="clip5"><path d="M14,14 L748,14 L748,731 L14,731 L14,14 Z" /></clipPath>
<path d="M199,89 L199,99" style="fill:none;stroke:rgb(31,20,0);stroke-width:2" clip-path="url(#clip5)" />
<clipPath id="clip6"><path d="M14,14 L385,14 L385,94 L14,94 L14,14 Z" /></clipPath>
<path d="M18,18 L18,89 L380,89 L380,18 Z M18,18" style="fill:rgb(255,255,255);stroke:none" clip-path="url(#clip6)" />
<clipPath id="clip7"><path d="M14,14 L385,14 L385,94 L14,94 L14,14 Z" /></clipPath>
<path d="M18,18 L18,89 L380,89 L380,18 Z M18,18" style="fill:none;stroke:rgb(19,21,13);stroke-width:5" clip-path="url(#clip7)" />
<text x="54" y="58" style="font:20px Arvo">2016.10.4 =&gt; 2016.10.20</text>
<clipPath id="clip8"><path d="M219,124 L563,124 L563,253 L219,253 Z M221,126 L221,172 L377,172 L377,126 Z M221,126 Z M221,126" /></clipPath>
<path d="M299,186 L299,208 L308,208" style="fill:none;stroke:rgb(31,20,0);stroke-width:2" clip-path="url(#clip8)" />
<clipPath id="clip9"><path d="M219,124 L563,124 L563,253 L219,253 Z M221,126 L221,172 L377,172 L377,126 Z M221,126 Z M221,126" /></clipPath>
<path d="M299,186 L299,238 L308,238" style="fill:none;stroke:rgb(31,20,0);stroke-width:2" clip-path="url(#clip9)" />
<clipPath id="clip10"><path d="M218,123 L564,123 L564,254 L218,254 L218,123 Z" /></clipPath>
<path d="M299,172 L299,186" style="fill:none;stroke:rgb(31,20,0);stroke-width:2" clip-path="url(#clip10)" />
<clipPath id="clip11"><path d="M218,123 L381,123 L381,176 L218,176 L218,123 Z" /></clipPath>
<path d="M221,126 L221,172 L377,172 L377,126 Z M221,126" style="fill:rgb(121,123,115);stroke:none" clip-path="url(#clip11)" />
<clipPath id="clip12"><path d="M218,123 L381,123 L381,176 L218,176 L218,123 Z" /></clipPath>
<path d="M221,126 L221,172 L377,172 L377,126 Z M221,126" style="fill:none;stroke:rgb(19,21,13);stroke-width:3" clip-path="url(#clip12)" />
<text x="237" y="152" style="font:16px Roboto Slab">Background</text>
<clipPath id="clip13"><path d="M293,174 L306,174 L306,187 L293,187 L293,174 Z" /></clipPath>
<path d="M303.5,180 C303.5,177.515625 301.484375,175.5 299,175.5 C296.515625,175.5 294.5,177.515625 294.5,180 C294.5,182.484375 296.515625,184.5 299,184.5 C301.484375,184.5 303.5,182.484375 303.5,180 Z M303.5,180" style="fill:rgb(250,250,250);stroke:none" clip-path="url(#clip13)" />
<clipPath id="clip14"><path d="M293,174 L306,174 L306,187 L293,187 L293,174 Z" /></clipPath>
<path d="M303.5,180 C303.5,177.515625 301.484375,175.5 299,175.5 C296.515625,175.5 294.5,177.515625 294.5,180 C294.5,182.484375 296.515625,184.5 299,184.5 C301.484375,184.5 303.5,182.484375 303.5,180 Z M303.5,180" style="fill:none;stroke:rgb(31,20,0)" clip-path="url(#clip14)" />
<clipPath id="clip15"><path d="M293,174 L306,174 L306,187 L293,187 L293,174 Z" /></clipPath>
<path d="M297,180 L301,180" style="fill:none;stroke:rgb(150,160,200)" clip-path="url(#clip15)" />
<clipPath id="clip16"><path d="M306,193 L564,193 L564,224 L306,224 L306,193 Z" /></clipPath>
<path d="M308,195 L308,221 L561,221 L561,195 Z M308,195" style="fill:none;stroke:rgb(31,20,0);stroke-width:2" clip-path="url(#clip16)" />
<text x="319" y="210" style="font:10px Roboto Slab">knowledge of basic matrix operations</text>
<clipPath id="clip17"><path d="M306,223 L550,223 L550,254 L306,254 L306,223 Z" /></clipPath>
<path d="M308,225 L308,251 L547,251 L547,225 Z M308,225" style="fill:none;stroke:rgb(31,20,0);stroke-width:2" clip-path="url(#clip17)" />
<text x="319" y="240" style="font:10px Roboto Slab">a little bit concepts of vector space.</text>
<clipPath id="clip18"><path d="M219,263 L661,263 L661,362 L219,362 Z M221,265 L221,311 L310,311 L310,265 Z M221,265 Z M221,265" /></clipPath>
<path d="M265.6835938,325 L265.6835938,347 L275,347" style="fill:none;stroke:rgb(31,20,0);stroke-width:2" clip-path="url(#clip18)" />
<clipPath id="clip19"><path d="M218,262 L662,262 L662,363 L218,363 L218,262 Z" /></clipPath>
<path d="M265.6132813,311 L265.6835938,325" style="fill:none;stroke:rgb(31,20,0);stroke-width:2" clip-path="url(#clip19)" />
<clipPath id="clip20"><path d="M218,262 L314,262 L314,315 L218,315 L218,262 Z" /></clipPath>
<path d="M221,265 L221,311 L310,311 L310,265 Z M221,265" style="fill:rgb(121,123,115);stroke:none" clip-path="url(#clip20)" />
<clipPath id="clip21"><path d="M218,262 L314,262 L314,315 L218,315 L218,262 Z" /></clipPath>
<path d="M221,265 L221,311 L310,311 L310,265 Z M221,265" style="fill:none;stroke:rgb(19,21,13);stroke-width:3" clip-path="url(#clip21)" />
<text x="237" y="291" style="font:16px Roboto Slab">Goals</text>
<clipPath id="clip22"><path d="M260,313 L273,313 L273,326 L260,326 L260,313 Z" /></clipPath>
<path d="M270.5,319 C270.5,316.515625 268.484375,314.5 266,314.5 C263.515625,314.5 261.5,316.515625 261.5,319 C261.5,321.484375 263.515625,323.5 266,323.5 C268.484375,323.5 270.5,321.484375 270.5,319 Z M270.5,319" style="fill:rgb(250,250,250);stroke:none" clip-path="url(#clip22)" />
<clipPath id="clip23"><path d="M260,313 L273,313 L273,326 L260,326 L260,313 Z" /></clipPath>
<path d="M270.5,319 C270.5,316.515625 268.484375,314.5 266,314.5 C263.515625,314.5 261.5,316.515625 261.5,319 C261.5,321.484375 263.515625,323.5 266,323.5 C268.484375,323.5 270.5,321.484375 270.5,319 Z M270.5,319" style="fill:none;stroke:rgb(31,20,0)" clip-path="url(#clip23)" />
<clipPath id="clip24"><path d="M260,313 L273,313 L273,326 L260,326 L260,313 Z" /></clipPath>
<path d="M264,319 L268,319" style="fill:none;stroke:rgb(150,160,200)" clip-path="url(#clip24)" />
<clipPath id="clip25"><path d="M273,332 L662,332 L662,363 L273,363 L273,332 Z" /></clipPath>
<path d="M275,334 L275,360 L659,360 L659,334 Z M275,334" style="fill:none;stroke:rgb(31,20,0);stroke-width:2" clip-path="url(#clip25)" />
<text x="286" y="349" style="font:10px Roboto Slab">Mastering Linear Algebra, both intuitively and theoretically</text>
<clipPath id="clip26"><path d="M219,372 L747,372 L747,561 L219,561 Z M221,374 L221,420 L348,420 L348,374 Z M221,374 Z M221,374" /></clipPath>
<path d="M284.6835938,434 L284.6835938,456 L294,456" style="fill:none;stroke:rgb(31,20,0);stroke-width:2" clip-path="url(#clip26)" />
<clipPath id="clip27"><path d="M219,372 L747,372 L747,561 L219,561 Z M221,374 L221,420 L348,420 L348,374 Z M221,374 Z M221,374" /></clipPath>
<path d="M284.6835938,434 L284.6835938,486 L294,486" style="fill:none;stroke:rgb(31,20,0);stroke-width:2" clip-path="url(#clip27)" />
<clipPath id="clip28"><path d="M219,372 L747,372 L747,561 L219,561 Z M221,374 L221,420 L348,420 L348,374 Z M221,374 Z M221,374" /></clipPath>
<path d="M284.6835938,434 L284.6835938,516 L294,516" style="fill:none;stroke:rgb(31,20,0);stroke-width:2" clip-path="url(#clip28)" />
<clipPath id="clip29"><path d="M219,372 L747,372 L747,561 L219,561 Z M221,374 L221,420 L348,420 L348,374 Z M221,374 Z M221,374" /></clipPath>
<path d="M284.6835938,434 L284.6835938,546 L294,546" style="fill:none;stroke:rgb(31,20,0);stroke-width:2" clip-path="url(#clip29)" />
<clipPath id="clip30"><path d="M218,371 L748,371 L748,562 L218,562 L218,371 Z" /></clipPath>
<path d="M284.6132813,420 L284.6835938,434" style="fill:none;stroke:rgb(31,20,0);stroke-width:2" clip-path="url(#clip30)" />
<clipPath id="clip31"><path d="M218,371 L352,371 L352,424 L218,424 L218,371 Z" /></clipPath>
<path d="M221,374 L221,420 L348,420 L348,374 Z M221,374" style="fill:rgb(121,123,115);stroke:none" clip-path="url(#clip31)" />
<clipPath id="clip32"><path d="M218,371 L352,371 L352,424 L218,424 L218,371 Z" /></clipPath>
<path d="M221,374 L221,420 L348,420 L348,374 Z M221,374" style="fill:none;stroke:rgb(19,21,13);stroke-width:3" clip-path="url(#clip32)" />
<text x="237" y="400" style="font:16px Roboto Slab">Readings</text>
<clipPath id="clip33"><path d="M279,422 L292,422 L292,435 L279,435 L279,422 Z" /></clipPath>
<path d="M289.5,428 C289.5,425.515625 287.484375,423.5 285,423.5 C282.515625,423.5 280.5,425.515625 280.5,428 C280.5,430.484375 282.515625,432.5 285,432.5 C287.484375,432.5 289.5,430.484375 289.5,428 Z M289.5,428" style="fill:rgb(250,250,250);stroke:none" clip-path="url(#clip33)" />
<clipPath id="clip34"><path d="M279,422 L292,422 L292,435 L279,435 L279,422 Z" /></clipPath>
<path d="M289.5,428 C289.5,425.515625 287.484375,423.5 285,423.5 C282.515625,423.5 280.5,425.515625 280.5,428 C280.5,430.484375 282.515625,432.5 285,432.5 C287.484375,432.5 289.5,430.484375 289.5,428 Z M289.5,428" style="fill:none;stroke:rgb(31,20,0)" clip-path="url(#clip34)" />
<clipPath id="clip35"><path d="M279,422 L292,422 L292,435 L279,435 L279,422 Z" /></clipPath>
<path d="M283,428 L287,428" style="fill:none;stroke:rgb(150,160,200)" clip-path="url(#clip35)" />
<clipPath id="clip36"><path d="M292,441 L666,441 L666,472 L292,472 L292,441 Z" /></clipPath>
<path d="M294,443 L294,469 L663,469 L663,443 Z M294,443" style="fill:none;stroke:rgb(31,20,0);stroke-width:2" clip-path="url(#clip36)" />
<text x="305" y="458" style="font:10px Roboto Slab">Introduction to Linear Algebra 4th Edition, Gilbert Strang</text>
<clipPath id="clip37"><path d="M292,471 L643,471 L643,502 L292,502 L292,471 Z" /></clipPath>
<path d="M294,473 L294,499 L640,499 L640,473 Z M294,473" style="fill:none;stroke:rgb(31,20,0);stroke-width:2" clip-path="url(#clip37)" />
<text x="305" y="488" style="font:10px Roboto Slab">Linear Algebra Done Right 3rd Edition, Sheldon Axler</text>
<clipPath id="clip38"><path d="M292,501 L748,501 L748,532 L292,532 L292,501 Z" /></clipPath>
<path d="M294,503 L294,529 L745,529 L745,503 Z M294,503" style="fill:none;stroke:rgb(31,20,0);stroke-width:2" clip-path="url(#clip38)" />
<text x="305" y="518" style="font:10px Roboto Slab">Linear Algebra and Its Applications 5th Edition, David C. Lay (optional)</text>
<clipPath id="clip39"><path d="M292,531 L743,531 L743,562 L292,562 L292,531 Z" /></clipPath>
<path d="M294,533 L294,559 L740,559 L740,533 Z M294,533" style="fill:none;stroke:rgb(31,20,0);stroke-width:2" clip-path="url(#clip39)" />
<text x="305" y="548" style="font:10px Roboto Slab">Flatland: A Romance of Many Dimensions, Edwin A. Abbott (optional)</text>
<clipPath id="clip40"><path d="M219,571 L713,571 L713,730 L219,730 Z M221,573 L221,619 L325,619 L325,573 Z M221,573 Z M221,573" /></clipPath>
<path d="M273,633 L273,655 L282,655" style="fill:none;stroke:rgb(31,20,0);stroke-width:2" clip-path="url(#clip40)" />
<clipPath id="clip41"><path d="M219,571 L713,571 L713,730 L219,730 Z M221,573 L221,619 L325,619 L325,573 Z M221,573 Z M221,573" /></clipPath>
<path d="M273,633 L273,685 L282,685" style="fill:none;stroke:rgb(31,20,0);stroke-width:2" clip-path="url(#clip41)" />
<clipPath id="clip42"><path d="M219,571 L713,571 L713,730 L219,730 Z M221,573 L221,619 L325,619 L325,573 Z M221,573 Z M221,573" /></clipPath>
<path d="M273,633 L273,715 L282,715" style="fill:none;stroke:rgb(31,20,0);stroke-width:2" clip-path="url(#clip42)" />
<clipPath id="clip43"><path d="M218,570 L714,570 L714,731 L218,731 L218,570 Z" /></clipPath>
<path d="M273,619 L273,633" style="fill:none;stroke:rgb(31,20,0);stroke-width:2" clip-path="url(#clip43)" />
<clipPath id="clip44"><path d="M218,570 L329,570 L329,623 L218,623 L218,570 Z" /></clipPath>
<path d="M221,573 L221,619 L325,619 L325,573 Z M221,573" style="fill:rgb(121,123,115);stroke:none" clip-path="url(#clip44)" />
<clipPath id="clip45"><path d="M218,570 L329,570 L329,623 L218,623 L218,570 Z" /></clipPath>
<path d="M221,573 L221,619 L325,619 L325,573 Z M221,573" style="fill:none;stroke:rgb(19,21,13);stroke-width:3" clip-path="url(#clip45)" />
<text x="237" y="599" style="font:16px Roboto Slab">Details</text>
<clipPath id="clip46"><path d="M267,621 L280,621 L280,634 L267,634 L267,621 Z" /></clipPath>
<path d="M277.5,627 C277.5,624.515625 275.484375,622.5 273,622.5 C270.515625,622.5 268.5,624.515625 268.5,627 C268.5,629.484375 270.515625,631.5 273,631.5 C275.484375,631.5 277.5,629.484375 277.5,627 Z M277.5,627" style="fill:rgb(250,250,250);stroke:none" clip-path="url(#clip46)" />
<clipPath id="clip47"><path d="M267,621 L280,621 L280,634 L267,634 L267,621 Z" /></clipPath>
<path d="M277.5,627 C277.5,624.515625 275.484375,622.5 273,622.5 C270.515625,622.5 268.5,624.515625 268.5,627 C268.5,629.484375 270.515625,631.5 273,631.5 C275.484375,631.5 277.5,629.484375 277.5,627 Z M277.5,627" style="fill:none;stroke:rgb(31,20,0)" clip-path="url(#clip47)" />
<clipPath id="clip48"><path d="M267,621 L280,621 L280,634 L267,634 L267,621 Z" /></clipPath>
<path d="M271,627 L275,627" style="fill:none;stroke:rgb(150,160,200)" clip-path="url(#clip48)" />
<clipPath id="clip49"><path d="M280,640 L487,640 L487,671 L280,671 L280,640 Z" /></clipPath>
<path d="M282,642 L282,668 L484,668 L484,642 Z M282,642" style="fill:none;stroke:rgb(31,20,0);stroke-width:2" clip-path="url(#clip49)" />
<text x="293" y="657" style="font:10px Roboto Slab">Watch MIT18.06 videos online</text>
<clipPath id="clip50"><path d="M280,670 L656,670 L656,701 L280,701 L280,670 Z" /></clipPath>
<path d="M282,672 L282,698 L653,698 L653,672 Z M282,672" style="fill:none;stroke:rgb(31,20,0);stroke-width:2" clip-path="url(#clip50)" />
<text x="293" y="687" style="font:10px Roboto Slab">Finish &gt;30% execises of Strang, &gt;70% execises of Sheldon</text>
<clipPath id="clip51"><path d="M280,700 L714,700 L714,731 L280,731 L280,700 Z" /></clipPath>
<path d="M282,702 L282,728 L711,728 L711,702 Z M282,702" style="fill:none;stroke:rgb(31,20,0);stroke-width:2" clip-path="url(#clip51)" />
<text x="293" y="717" style="font:10px Roboto Slab">TRY to prove ALL the related theorems and lemmas independently</text>
</svg>
